<?xml version="1.0" standalone="no"?> <!DOCTYPE svg PUBLIC "-//W3C//DTD SVG 1.0//EN" "http://www.w3.org/TR/2001/REC-SVG-20010904/DTD/svg10.dtd" > <svg xmlns="http://www.w3.org/2000/svg" width="100%" height="100%">
<defs >
<font id="museosans_900" horiz-adv-x="996" ><font-face
    font-family="Museo Sans 900"
    units-per-em="2048"
    panose-1="2 0 0 0 0 0 0 0 0 0"
    ascent="1925"
    descent="-532"
    alphabetic="0" />
<missing-glyph horiz-adv-x="1044" d="M10 0V1434H1034V0H10ZM522 809L870 1331H174L522 809ZM584 717L932 195V1239L584 717ZM113 195L461 717L113 1239V195ZM174 102H870L522 625L174 102Z" />
<glyph unicode=" " glyph-name="space" horiz-adv-x="468" />
<glyph unicode="!" glyph-name="exclam" horiz-adv-x="749" d="M223 453L190 1464H559L526 453H223ZM213 0V307H537V0H213Z" />
<glyph unicode="&quot;" glyph-name="quotedbl" horiz-adv-x="845" d="M494 1004V1495H743V1004H494ZM102 1004V1495H352V1004H102Z" />
<glyph unicode="#" glyph-name="numbersign" horiz-adv-x="1431" d="M207 0L270 369H63L104 614H311L346 809H143L184 1055H387L459 1464H733L662 1055H883L954 1464H1229L1157 1055H1372L1331 809H1116L1081 614H1292L1251 369H1040L977 0H702L766 369H545L481
0H207ZM586 614H807L842 809H621L586 614Z" />
<glyph unicode="$" glyph-name="dollar" horiz-adv-x="1212" d="M80 184L268 457Q275 451 287 441T337 404T415 358T510 322T618 305Q682 305 727 333T772 422Q772 451 744 477T668 525T561 573T439 627T317 694T210 781T135 894T106 1040Q106 1209 214 1326T498
1477V1669H721V1483Q791 1475 855 1456T962 1414T1035 1371T1082 1336L1096 1323L944 1030Q938 1035 927 1044T881 1075T811 1114T723 1145T621 1159Q558 1159 512 1130T465 1044Q465 1016 487 992T548 948T637 908T742 865T852 816T958 752T1046 671T1107 565T1130
430Q1130 262 1021 138T721 -16V-203H498V-16Q422 -5 351 19T233 71T150 124T97 167L80 184Z" />
<glyph unicode="%" glyph-name="percent" horiz-adv-x="1744" d="M430 782Q275 782 167 884T59 1135Q59 1280 167 1384T430 1489Q583 1489 692 1385T801 1135Q801 988 693 885T430 782ZM141 0L1272 1464H1583L453 0H141ZM430 1028Q477 1028 510 1059T543 1137Q543
1180 510 1211T430 1243T351 1212T317 1137Q317 1091 350 1060T430 1028ZM934 328Q934 473 1042 577T1305 682Q1457 682 1566 578T1675 328Q1675 181 1567 78T1305 -25Q1150 -25 1042 77T934 328ZM1192 330Q1192 284 1225 253T1305 221Q1351 221 1384 252T1417
330Q1417 373 1384 404T1305 436T1226 405T1192 330Z" />
<glyph unicode="&amp;" glyph-name="ampersand" horiz-adv-x="1441" d="M80 424Q80 537 144 634T313 774V778Q306 781 295 788T254 821T201 879T160 969T141 1094Q141 1177 168 1244T241 1356T349 1431T481 1475T625 1489Q672 1489 725 1483T807 1470L836 1464L754
1184Q717 1192 674 1192Q600 1192 552 1154T504 1040Q504 982 543 941T653 899H831V1079H1184V899H1366V592H1184V451Q1184 352 1147 266T1040 115T863 13T625 -25Q380 -25 230 103T80 424ZM446 446Q446 386 498 344T625 301Q723 301 777 348T831 471V592H631Q551
592 499 558T446 446Z" />
<glyph unicode="&apos;" glyph-name="quotesingle" horiz-adv-x="460" d="M102 1004V1495H358V1004H102Z" />
<glyph unicode="(" glyph-name="parenleft" horiz-adv-x="688" d="M373 -195Q119 207 119 711Q119 1144 373 1536H664Q432 1148 432 711Q432 246 664 -195H373Z" />
<glyph unicode=")" glyph-name="parenright" horiz-adv-x="688" d="M315 -195H25Q256 247 256 711Q256 1147 25 1536H315Q569 1144 569 711Q569 207 315 -195Z" />
<glyph unicode="*" glyph-name="asterisk" horiz-adv-x="946" d="M358 633L109 813L262 983V987L37 1034L131 1327L340 1235L317 1464H629L604 1235L815 1329L911 1036L684 989V985L840 815L590 633L475 831H471L358 633Z" />
<glyph unicode="+" glyph-name="plus" horiz-adv-x="1286" d="M84 455V721H504V1178H782V721H1202V455H782V0H504V455H84Z" />
<glyph unicode="," glyph-name="comma" horiz-adv-x="589" d="M12 -227L166 340H504L272 -227H12Z" />
<glyph unicode="-" glyph-name="hyphen" horiz-adv-x="917" d="M137 434V741H780V434H137Z" />
<glyph unicode="." glyph-name="period" horiz-adv-x="573" d="M119 0V336H455V0H119Z" />
<glyph unicode="/" glyph-name="slash" horiz-adv-x="888" d="M43 -86L567 1536H862L338 -86H43Z" />
<glyph unicode="0" glyph-name="zero" horiz-adv-x="1310" d="M655 -25Q534 -25 439 14T282 121T179 286T121 494T104 735T121 975T178 1181T281 1345T439 1450T655 1489Q777 1489 872 1451T1029 1345T1131 1182T1189 976T1206 735T1189 494T1132 287T1029 121T872
14T655 -25ZM655 303Q838 303 838 735Q838 1161 655 1161Q473 1161 473 735Q473 303 655 303Z" />
<glyph unicode="1" glyph-name="one" horiz-adv-x="1136" d="M115 0V307H426V918L428 1030H424Q406 989 367 952L279 872L72 1094L467 1464H776V307H1090V0H115Z" />
<glyph unicode="2" glyph-name="two" horiz-adv-x="1230" d="M115 0Q98 88 98 158Q98 268 133 363T223 526T346 651T482 754T605 839T696 921T731 1006Q731 1077 684 1114T573 1151Q534 1151 498 1135T437 1096T393 1050T365 1011L356 995L90 1174Q93 1181 98
1192T125 1236T173 1298T243 1364T337 1427T457 1471T606 1489Q680 1489 750 1473T885 1421T999 1334T1077 1207T1106 1040Q1106 947 1074 866T989 728T873 620T746 531T629 456T542 383T506 307H1128V0H115Z" />
<glyph unicode="3" glyph-name="three" horiz-adv-x="1202" d="M61 168L233 444Q238 439 248 430T290 399T355 359T438 327T535 313Q631 313 687 355T743 459Q743 541 670 581T471 621H369L293 795L485 1026Q516 1063 548 1097T596 1148L612 1163V1167Q565 1157
473 1157H123V1464H1047V1241L750 899Q911 864 1007 747T1104 475Q1104 379 1070 291T971 132T800 18T561 -25Q469 -25 384 -5T243 43T143 100T80 148L61 168Z" />
<glyph unicode="4" glyph-name="four" horiz-adv-x="1318" d="M53 354V571L618 1464H1057V651H1231V354H1057V0H702V354H53ZM418 651H702V979Q702 1015 705 1056T712 1120L715 1143H711Q680 1053 639 991L418 655V651Z" />
<glyph unicode="5" glyph-name="five" horiz-adv-x="1196" d="M78 168L250 444Q255 439 265 430T307 399T372 359T453 327T547 313Q627 313 689 361T752 494Q752 578 686 627T518 676Q468 676 419 664T346 640L322 627L131 698L190 1464H1010V1157H502L494 1022Q494
1009 492 995T488 973L485 965H489Q541 979 596 979Q723 979 824 941T989 837T1086 685T1120 498Q1120 270 968 123T578 -25Q487 -25 403 -5T262 43T162 100T98 148L78 168Z" />
<glyph unicode="6" glyph-name="six" horiz-adv-x="1267" d="M688 -25Q574 -25 470 18T281 145T145 366T94 676Q94 796 122 913T209 1134T350 1317T546 1442T793 1489Q884 1489 964 1473T1080 1441L1116 1425L1020 1118Q924 1161 819 1161Q697 1161 619 1095T504
920H508Q535 939 596 955T709 971Q820 971 912 928T1063 814T1155 654T1188 469Q1188 375 1154 287T1058 129T900 17T688 -25ZM688 303Q753 303 794 351T836 467Q836 555 780 618T614 682Q463 682 463 594Q463 470 534 387T688 303Z" />
<glyph unicode="7" glyph-name="seven" horiz-adv-x="1161" d="M133 0L647 1026Q670 1070 693 1103T729 1148L741 1159V1163Q721 1157 647 1157H70V1464H1120V1214L506 0H133Z" />
<glyph unicode="8" glyph-name="eight" horiz-adv-x="1275" d="M90 430Q90 495 114 558T176 667T241 740T293 786Q160 902 160 1067Q160 1149 189 1223T276 1357T430 1453T651 1489Q789 1489 900 1441T1079 1295T1147 1065Q1147 1042 1144 1018T1134 972T1119
927T1101 885T1081 846T1061 812T1041 782T1024 758T1011 740L1004 731Q1176 613 1176 422Q1176 354 1155 290T1089 169T981 68T828 0T633 -25Q504 -25 399 13T227 115T126 260T90 430ZM809 440Q809 454 805 466T791 491T770 514T741 536T709 556T669 577T628 597T582
618T535 639Q457 557 457 461Q457 390 508 341T633 291Q715 291 762 330T809 440ZM510 1059Q510 1024 527 996T581 942T652 900T745 858Q797 950 797 1038Q797 1100 756 1137T643 1174Q577 1174 544 1142T510 1059Z" />
<glyph unicode="9" glyph-name="nine" horiz-adv-x="1267" d="M475 -25Q384 -25 303 -9T187 23L152 39L248 346Q344 303 449 303Q571 303 649 369T764 545H760Q736 525 674 510T559 494Q448 494 356 536T205 650T113 810T80 995Q80 1089 114 1177T210 1335T368
1447T580 1489Q670 1489 755 1463T916 1380T1049 1242T1140 1044T1174 788Q1174 668 1146 551T1059 330T918 147T722 22T475 -25ZM653 782Q805 782 805 870Q805 994 734 1077T580 1161Q514 1161 473 1113T432 997Q432 910 488 846T653 782Z" />
<glyph unicode=":" glyph-name="colon" horiz-adv-x="614" d="M139 719V1055H475V719H139ZM139 0V336H475V0H139Z" />
<glyph unicode=";" glyph-name="semicolon" horiz-adv-x="618" d="M170 719V1055H494V719H170ZM27 -227L160 340H500L289 -227H27Z" />
<glyph unicode="&lt;" glyph-name="less" horiz-adv-x="1292" d="M123 479V698L1155 1155V858L479 590V586L1155 319V23L123 479Z" />
<glyph unicode="=" glyph-name="equal" horiz-adv-x="1323" d="M143 690V956H1180V690H143ZM143 219V485H1180V219H143Z" />
<glyph unicode="&gt;" glyph-name="greater" horiz-adv-x="1292" d="M137 23V319L813 586V590L137 858V1155L1169 698V479L137 23Z" />
<glyph unicode="?" glyph-name="question" horiz-adv-x="1026" d="M252 453V555Q252 611 269 660T315 744T378 812T446 872T509 927T555 986T573 1053Q573 1104 530 1139T428 1174Q384 1174 336 1152T260 1108L233 1085L37 1325Q43 1332 55 1343T108 1384T196
1435T315 1476T465 1495Q535 1495 602 1479T731 1430T840 1350T914 1237T942 1094Q942 1026 923 967T873 866T805 788T730 720T662 660T612 597T592 526V453H252ZM260 0V307H584V0H260Z" />
<glyph unicode="@" glyph-name="at" horiz-adv-x="1771" d="M90 489Q90 649 151 791T319 1037T575 1200T895 1260Q1027 1260 1132 1234T1306 1164T1420 1056T1485 922T1505 768V362H1657V119H1077Q966 119 876 151T729 236T642 355T612 492Q612 561 641 624T726
739T873 821T1077 852H1178Q1178 913 1093 948T901 983Q804 983 717 941T568 829T472 671T436 489Q436 390 470 303T567 147T730 40T952 0V-266Q755 -266 592 -207T319 -46T150 193T90 489ZM963 500Q963 440 998 401T1098 362H1178V637H1102Q1035 637 999 598T963
500Z" />
<glyph unicode="A" glyph-name="A" horiz-adv-x="1355" d="M995 0L905 307H449L360 0H-8L489 1464H866L1364 0H995ZM680 1130H676Q643 971 616 879L532 594H821L739 879Q727 920 713 982T689 1088L680 1130Z" />
<glyph unicode="B" glyph-name="B" horiz-adv-x="1349" d="M172 0V1464H711Q937 1464 1072 1365T1208 1081Q1208 986 1164 902T1038 770V766Q1155 730 1211 638T1268 436Q1268 343 1238 269T1156 145T1032 62T881 15T711 0H172ZM530 897H715Q778 897 811 936T844
1032Q844 1087 811 1122T709 1157H530V897ZM530 307H745Q820 307 860 351T901 461Q901 526 862 568T748 610H530V307Z" />
<glyph unicode="C" glyph-name="C" horiz-adv-x="1474" d="M72 735Q72 893 130 1032T290 1272T534 1430T840 1489Q941 1489 1035 1468T1190 1416T1299 1356T1368 1304L1389 1282L1223 1012Q1216 1018 1204 1028T1153 1064T1073 1109T973 1145T856 1161Q754 1161
673 1126T543 1031T468 898T442 743Q442 660 469 583T547 442T678 341T856 303Q918 303 981 321T1089 366T1171 419T1226 464L1245 483L1430 221Q1422 211 1406 195T1333 136T1213 61T1049 2T840 -25Q615 -25 439 74T168 346T72 735Z" />
<glyph unicode="D" glyph-name="D" horiz-adv-x="1527" d="M172 0V1464H692Q1041 1464 1244 1271T1448 735T1244 196T692 0H172ZM530 307H678Q866 307 971 417T1077 735Q1077 940 971 1048T678 1157H530V307Z" />
<glyph unicode="E" glyph-name="E" horiz-adv-x="1204" d="M172 0V1464H1090V1157H530V891H977V584H530V307H1118V0H172Z" />
<glyph unicode="F" glyph-name="F" horiz-adv-x="1124" d="M172 0V1464H1069V1157H530V850H977V543H530V0H172Z" />
<glyph unicode="G" glyph-name="G" horiz-adv-x="1576" d="M74 735Q74 893 131 1032T290 1272T534 1431T842 1489Q947 1489 1043 1469T1203 1421T1314 1363T1384 1314L1405 1294L1233 1026Q1227 1031 1216 1040T1167 1073T1091 1114T994 1146T877 1161Q765 1161
680 1128T545 1036T469 905T444 748Q444 646 477 561T568 421T702 334T864 303Q912 303 960 314T1043 340T1105 372T1147 399L1161 410V522H954V827H1479V0H1180V41L1182 102H1178Q1172 97 1161 89T1113 58T1034 19T927 -11T793 -25Q652 -25 523 27T293 174T134
415T74 735Z" />
<glyph unicode="H" glyph-name="H" horiz-adv-x="1593" d="M172 0V1464H530V879H1063V1464H1421V0H1063V573H530V0H172Z" />
<glyph unicode="I" glyph-name="I" horiz-adv-x="702" d="M172 0V1464H530V0H172Z" />
<glyph unicode="J" glyph-name="J" horiz-adv-x="1177" d="M43 451V557H401V479Q401 400 430 356Q464 303 537 303Q596 303 631 342T666 459V1157H272V1464H1024V451Q1024 335 982 242T870 92T713 5T532 -25T352 5T196 93T85 243T43 451Z" />
<glyph unicode="K" glyph-name="K" horiz-adv-x="1417" d="M172 0V1464H530V899H678L981 1464H1366L971 764V760L1389 0H987L678 594H530V0H172Z" />
<glyph unicode="L" glyph-name="L" horiz-adv-x="1153" d="M172 0V1464H530V307H1128V0H172Z" />
<glyph unicode="M" glyph-name="M" horiz-adv-x="1849" d="M127 0L248 1464H637L850 846Q865 804 883 744T913 644L924 604H928Q969 752 1001 846L1214 1464H1604L1722 0H1364L1319 659Q1315 708 1315 769T1317 868L1319 905H1315Q1266 752 1233 659L1079 236H772L618
659L537 905H532Q541 770 532 659L487 0H127Z" />
<glyph unicode="N" glyph-name="N" horiz-adv-x="1581" d="M172 0V1464H535L940 780Q965 737 996 675T1045 571L1063 530H1067Q1051 688 1051 780V1464H1409V0H1049L641 682Q616 725 585 787T536 891L518 932H514Q530 774 530 682V0H172Z" />
<glyph unicode="O" glyph-name="O" horiz-adv-x="1675" d="M72 741Q72 897 130 1035T288 1273T532 1431T838 1489T1144 1431T1387 1273T1546 1035T1604 741Q1604 528 1506 353T1231 77T838 -25Q675 -25 532 34T289 196T130 440T72 741ZM442 741Q442 555 557 429T838
303Q1003 303 1118 429T1233 741Q1233 920 1118 1040T838 1161Q672 1161 557 1041T442 741Z" />
<glyph unicode="P" glyph-name="P" horiz-adv-x="1298" d="M172 0V1464H780Q993 1464 1125 1324T1257 961Q1257 738 1125 596T780 453H530V0H172ZM530 760H707Q797 760 845 815T893 961Q893 1050 846 1103T713 1157H530V760Z" />
<glyph unicode="Q" glyph-name="Q" horiz-adv-x="1695" d="M72 741Q72 897 130 1035T288 1273T532 1431T838 1489T1144 1431T1387 1273T1546 1035T1604 741Q1604 516 1458 307L1612 182L1409 -45L1260 96Q1075 -25 838 -25Q675 -25 532 34T289 196T130 440T72
741ZM442 741Q442 555 557 429T838 303Q932 303 997 336L848 467L1049 694L1194 553Q1233 642 1233 741Q1233 920 1118 1040T838 1161Q672 1161 557 1041T442 741Z" />
<glyph unicode="R" glyph-name="R" horiz-adv-x="1402" d="M172 0V1464H682Q876 1464 967 1430Q1094 1381 1165 1271T1237 1004Q1237 880 1180 769T1018 604V600Q1038 573 1073 512L1358 0H958L698 494H530V0H172ZM530 801H686Q773 801 822 847T872 981Q872 1071
826 1114T651 1157H530V801Z" />
<glyph unicode="S" glyph-name="S" horiz-adv-x="1187" d="M63 184L252 457Q259 451 271 441T321 404T399 358T494 322T602 305Q666 305 711 333T756 422Q756 457 720 487T625 542T497 596T356 663T227 750T133 873T96 1040Q96 1172 165 1275T351 1434T614 1489Q702
1489 783 1472T917 1431T1009 1382T1067 1340L1085 1323L934 1030Q928 1035 917 1044T871 1075T800 1114T712 1145T610 1159Q548 1159 502 1130T455 1044Q455 1007 491 977T586 923T714 872T854 808T983 723T1077 600T1114 430Q1114 338 1079 256T980 111T817 12T598
-25Q502 -25 412 -4T261 48T153 110T84 162L63 184Z" />
<glyph unicode="T" glyph-name="T" horiz-adv-x="1263" d="M453 0V1157H8V1464H1255V1157H811V0H453Z" />
<glyph unicode="U" glyph-name="U" horiz-adv-x="1527" d="M152 539V1464H510V539Q510 425 578 364T764 303T950 364T1018 539V1464H1376V539Q1376 375 1301 247T1087 47T766 -25Q489 -25 321 132T152 539Z" />
<glyph unicode="V" glyph-name="V" horiz-adv-x="1382" d="M506 0L-12 1464H377L635 631Q648 590 661 531T682 434L690 395H694Q721 539 750 631L1012 1464H1395L879 0H506Z" />
<glyph unicode="W" glyph-name="W" horiz-adv-x="2043" d="M399 0L43 1464H420L604 549Q612 509 617 471T622 414L623 395H627Q629 459 651 549L877 1464H1165L1384 549Q1394 509 1400 471T1408 414L1409 395H1413Q1413 459 1432 549L1632 1464H2003L1632 0H1233L1049
739Q1039 781 1032 824T1022 889L1020 911H1016Q1010 834 987 739L803 0H399Z" />
<glyph unicode="X" glyph-name="X" horiz-adv-x="1382" d="M33 0L477 727L31 1464H438L598 1163Q620 1122 642 1075T676 1002L688 975H692Q731 1069 782 1163L944 1464H1352L903 727L1350 0H950L782 307Q759 348 737 393T703 464L692 489H688Q649 399 598 307L430 0H33Z" />
<glyph unicode="Y" glyph-name="Y" horiz-adv-x="1308" d="M475 0V600L-8 1464H399L565 1112Q586 1068 608 1015T642 932L653 901H657Q698 1012 745 1112L909 1464H1317L834 600V0H475Z" />
<glyph unicode="Z" glyph-name="Z" horiz-adv-x="1306" d="M78 0V225L643 1026Q671 1066 699 1099T742 1146L756 1159V1163Q709 1157 643 1157H104V1464H1210V1243L643 438Q615 398 587 365T544 318L530 305V301Q578 307 643 307H1221V0H78Z" />
<glyph unicode="[" glyph-name="bracketleft" horiz-adv-x="757" d="M174 -195V1536H678V1290H469V51H678V-195H174Z" />
<glyph unicode="\" glyph-name="backslash" horiz-adv-x="888" d="M551 -86L27 1536H322L846 -86H551Z" />
<glyph unicode="]" glyph-name="bracketright" horiz-adv-x="757" d="M80 51H289V1290H80V1536H584V-195H80V51Z" />
<glyph unicode="^" glyph-name="asciicircum" horiz-adv-x="1290" d="M119 494L535 1464H754L1169 494H872L643 1108L416 494H119Z" />
<glyph unicode="_" glyph-name="underscore" horiz-adv-x="1273" d="M27 0H1247V-266H27V0Z" />
<glyph unicode="`" glyph-name="grave" horiz-adv-x="991" d="M479 1559L238 1866H588L754 1559H479Z" />
<glyph unicode="a" glyph-name="a" horiz-adv-x="1146" d="M51 315Q51 378 77 430T143 517T241 578T353 619T471 643T578 654T664 657H678V676Q678 793 522 793Q463 793 392 768T280 717L238 692L115 942Q122 948 136 957T195 989T289 1031T411 1064T557 1079Q780
1079 906 965T1032 649V0H709V63L713 129H709Q706 123 700 113T668 76T611 29T526 -8T410 -25Q258 -25 155 68T51 315ZM408 334Q408 295 433 271T508 246Q575 246 628 305T682 432V455H649Q589 455 537 444T446 404T408 334Z" />
<glyph unicode="b" glyph-name="b" horiz-adv-x="1304" d="M131 0V1464H485V1057L481 967H485Q489 972 497 979T532 1006T589 1040T669 1067T770 1079Q984 1079 1114 926T1245 526Q1245 280 1106 128T754 -25Q699 -25 650 -13T568 17T511 51T476 82L465 94H461Q463
68 463 35V0H131ZM475 520Q475 417 529 343T682 268Q769 268 829 335T889 520Q889 638 832 709T682 780Q594 780 535 714T475 520Z" />
<glyph unicode="c" glyph-name="c" horiz-adv-x="1128" d="M53 528Q53 635 92 733T204 909T390 1033T641 1079Q721 1079 794 1063T913 1023T995 977T1046 936L1061 920L911 682Q907 686 899 693T866 717T814 748T746 773T664 784Q545 784 479 709T412 532Q412
484 428 439T476 355T560 294T676 270Q741 270 813 302T926 366L965 397L1094 150Q1088 143 1076 131T1020 89T928 36T802 -6T641 -25Q504 -25 391 20T205 143T93 319T53 528Z" />
<glyph unicode="d" glyph-name="d" horiz-adv-x="1304" d="M59 528Q59 776 193 927T541 1079Q601 1079 651 1071T730 1050T780 1025T809 1004L817 995H821Q819 1016 819 1042V1464H1174V0H842V70L844 129H840Q836 123 829 113T795 76T736 29T650 -8T535 -25Q321
-25 190 128T59 528ZM416 645T416 528T473 340T623 268Q710 268 769 334T829 528Q829 631 775 705T623 780Q536 780 476 713Z" />
<glyph unicode="e" glyph-name="e" horiz-adv-x="1153" d="M55 528Q55 683 120 807T312 1005T604 1079Q832 1079 962 937T1092 569L1083 459H418Q437 367 505 319T664 270Q731 270 803 297T915 350L954 377L1085 129Q1078 123 1065 113T1008 76T915 29T790 -8T635
-25Q498 -25 386 22T203 147T94 323T55 528ZM426 662H735Q735 723 696 768T596 813Q525 813 483 770T426 662Z" />
<glyph unicode="f" glyph-name="f" horiz-adv-x="786" d="M197 0V760H68V1036H197V1079Q197 1178 232 1252T317 1367T437 1433T563 1465T680 1473Q708 1473 734 1472T774 1468L786 1466V1167Q762 1171 729 1171Q551 1171 551 1069V1036H745V760H551V0H197Z" />
<glyph unicode="g" glyph-name="g" horiz-adv-x="1288" d="M262 -68Q277 -76 303 -87T407 -116T559 -135Q667 -135 735 -88T803 68V102L805 141H801Q708 31 537 31Q444 31 366 60T232 139T137 257T80 402T61 561Q61 664 90 755T177 920T326 1036T535 1079Q589
1079 638 1069T719 1043T775 1013T810 988L821 977H827Q825 989 825 1001V1055H1157V96Q1157 -16 1123 -106T1031 -256T895 -355T734 -412T561 -430Q458 -430 350 -404T162 -336L262 -68ZM621 326Q702 326 756 378T811 557Q811 624 795 670T748 740T684 774T606
784Q515 784 467 726T418 573Q418 467 469 397T621 326Z" />
<glyph unicode="h" glyph-name="h" horiz-adv-x="1302" d="M131 0V1464H485V1001L481 911H485Q530 989 616 1034T807 1079Q890 1079 956 1059T1076 994T1157 871T1186 684V0H831V618Q831 691 803 724T715 758Q636 758 582 716T504 602Q485 550 485 467V0H131Z" />
<glyph unicode="i" glyph-name="i" horiz-adv-x="616" d="M135 1188V1464H481V1188H135ZM131 0V1055H485V0H131Z" />
<glyph unicode="j" glyph-name="j" horiz-adv-x="616" d="M135 1188V1464H481V1188H135ZM131 1055H485V-27Q485 -100 466 -160T416 -261T342 -332T254 -380T160 -408T70 -422T-10 -426Q-36 -426 -59 -425T-94 -422L-104 -420V-125Q-86 -127 -59 -127Q-28 -127
0 -122T61 -105T112 -63T131 8V1055Z" />
<glyph unicode="k" glyph-name="k" horiz-adv-x="1226" d="M131 0V1464H485V707H586L795 1055H1180L870 575V571L1223 0H819L596 410H485V0H131Z" />
<glyph unicode="l" glyph-name="l" horiz-adv-x="661" d="M117 389V1464H471V436Q471 359 490 330T569 301L612 303V-4Q563 -10 506 -10Q461 -10 425 -7T347 7T273 35T211 83T161 155T129 255T117 389Z" />
<glyph unicode="m" glyph-name="m" horiz-adv-x="1880" d="M131 0V1055H471V963L467 897H471Q592 1079 784 1079Q886 1079 962 1034T1079 901H1083Q1129 974 1220 1026T1421 1079Q1577 1079 1670 985T1763 684V0H1409V625Q1409 690 1392 724T1327 758Q1246 758
1198 705T1133 559Q1124 522 1124 436V0H770V625Q770 690 753 724T688 758Q537 758 496 567Q485 519 485 436V0H131Z" />
<glyph unicode="n" glyph-name="n" horiz-adv-x="1302" d="M131 0V1055H471V963L467 897H471Q516 973 598 1026T807 1079Q890 1079 956 1059T1076 994T1157 871T1186 684V0H831V618Q831 691 803 724T715 758Q635 758 583 718T506 606Q485 544 485 467V0H131Z" />
<glyph unicode="o" glyph-name="o" horiz-adv-x="1302" d="M53 524Q53 646 100 750T227 926T416 1038T649 1079Q816 1079 952 1011T1168 814T1249 524Q1249 363 1169 237T953 43T651 -25T349 43T133 237T53 524ZM412 524Q412 410 481 340T651 270T821 340T891
524Q891 641 821 712T651 784T482 713T412 524Z" />
<glyph unicode="p" glyph-name="p" horiz-adv-x="1304" d="M131 -410V1055H451V1001L446 934H451Q455 940 463 949T499 984T561 1028T651 1063T770 1079Q984 1079 1114 926T1245 526Q1245 280 1106 128T754 -25Q678 -25 611 0T514 51L485 76H481Q485 39 485 -14V-410H131ZM475
520Q475 417 529 343T682 268Q769 268 829 335T889 520Q889 638 832 709T682 780Q594 780 535 714T475 520Z" />
<glyph unicode="q" glyph-name="q" horiz-adv-x="1304" d="M59 528Q59 776 193 927T541 1079Q601 1079 654 1068T739 1040T796 1007T832 978L842 967H846Q842 989 842 1024V1055H1174V-410H819V4L823 94H819Q815 89 808 81T775 53T718 17T639 -12T535 -25Q321
-25 190 128T59 528ZM416 645T416 528T473 340T623 268Q710 268 769 334T829 528Q829 631 775 705T623 780Q536 780 476 713Z" />
<glyph unicode="r" glyph-name="r" horiz-adv-x="880" d="M131 0V1055H471V877L467 811H471Q506 922 599 997T807 1073L848 1069V721Q819 727 776 727Q739 727 704 720T629 695T555 638T504 543Q485 481 485 399V0H131Z" />
<glyph unicode="s" glyph-name="s" horiz-adv-x="964" d="M49 131L201 369Q206 365 214 358T251 332T309 299T382 274T469 262Q513 262 543 274T573 311Q573 327 552 342T496 371T417 402T327 439T236 489T157 556T101 644T80 758Q80 903 203 991T514 1079Q583
1079 646 1067T751 1036T824 1001T870 970L885 958L764 707Q760 710 752 716T719 737T666 763T597 783T514 793Q470 793 440 780T410 741Q410 727 431 714T487 688T566 659T656 623T747 574T826 509T882 422T903 309Q903 168 786 72T471 -25Q397 -25 327 -9T208
30T123 76T67 115L49 131Z" />
<glyph unicode="t" glyph-name="t" horiz-adv-x="849" d="M184 389V760H49V1036H195V1339H539V1036H760V760H539V436Q539 394 558 365T608 324T668 306T727 301L774 303V-4Q735 -10 678 -10Q637 -10 598 -7T507 7T413 35T326 83T253 154T203 255T184 389Z" />
<glyph unicode="u" glyph-name="u" horiz-adv-x="1292" d="M117 371V1055H471V436Q471 297 584 297Q692 297 749 379T807 588V1055H1161V0H821V92L825 158H821Q779 74 689 25T492 -25Q410 -25 345 -5T227 61T146 184T117 371Z" />
<glyph unicode="v" glyph-name="v" horiz-adv-x="1150" d="M360 0L-4 1055H369L532 494Q541 464 551 418T566 342L571 311H575Q594 424 614 494L776 1055H1151L793 0H360Z" />
<glyph unicode="w" glyph-name="w" horiz-adv-x="1720" d="M322 0L27 1055H399L530 432Q536 407 539 380T542 337L543 322H547Q551 375 565 432L711 1055H1014L1159 432Q1166 407 1170 380T1175 337L1176 322H1180Q1182 375 1194 432L1325 1055H1694L1399 0H1004L885
487Q878 513 873 541T866 584L864 600H860Q854 545 840 487L721 0H322Z" />
<glyph unicode="x" glyph-name="x" horiz-adv-x="1142" d="M31 0L362 522L23 1055H422L537 819L569 750H573L606 819L721 1055H1120L782 522L1114 0H725L598 238L573 291H569Q555 256 545 238L420 0H31Z" />
<glyph unicode="y" glyph-name="y" horiz-adv-x="1118" d="M2 -356L115 -96Q172 -135 223 -135Q349 -135 393 -29L414 20L-35 1055H367L522 569Q530 544 540 503T556 434L561 406H565Q586 506 600 563L733 1055H1120L688 -113Q646 -225 572 -298T418 -401T248
-430Q186 -430 125 -412T32 -374L2 -356Z" />
<glyph unicode="z" glyph-name="z" horiz-adv-x="1112" d="M70 0V176L457 662Q481 691 504 715T538 748L549 758V762Q522 758 457 758H86V1055H1028V877L643 391Q620 363 597 339T561 305L549 295V291Q575 297 643 297H1038V0H70Z" />
<glyph unicode="{" glyph-name="braceleft" horiz-adv-x="829" d="M254 127V328Q254 383 236 423T193 482T142 511T98 523L80 524V831Q87 831 99 832T141 844T193 874T235 935T254 1034V1214Q254 1298 283 1361T355 1458T457 1513T563 1540T662 1546L750 1542V1288Q727
1292 698 1292Q672 1292 649 1288T602 1273T564 1239T549 1182V942Q549 883 532 835T489 760T438 714T394 688L377 682V678Q384 676 395 672T436 649T489 604T530 529T549 420V160Q549 127 563 104T602 69T649 54T698 49L750 53V-201Q713 -205 662 -205T564 -199T457
-172T356 -117T284 -20T254 127Z" />
<glyph unicode="|" glyph-name="bar" horiz-adv-x="634" d="M170 -338V1642H465V-338H170Z" />
<glyph unicode="}" glyph-name="braceright" horiz-adv-x="829" d="M80 53Q102 49 131 49Q157 49 180 53T227 69T266 103T281 160V420Q281 480 298 529T341 604T392 649T436 672L453 678V682Q446 684 435 688T394 713T341 760T300 834T281 942V1182Q281 1215 267
1238T228 1272T180 1287T131 1292L80 1288V1542Q117 1546 168 1546T266 1540T372 1513T473 1458T545 1361T575 1214V1034Q575 977 593 936T636 875T688 844T732 832L750 831V524Q743 524 731 523T689 511T636 482T594 424T575 328V127Q575 43 546 -20T474 -117T372
-172T266 -199T168 -205L80 -201V53Z" />
<glyph unicode="~" glyph-name="asciitilde" horiz-adv-x="1280" d="M96 391Q96 807 453 807Q506 807 551 790T629 749T689 701T746 660T805 643Q856 643 887 683T918 799H1190Q1190 383 836 383Q783 383 737 400T659 441T599 489T541 530T481 547Q432 547 402
507T371 391H96Z" />
</font>
</defs>
</svg>
